<svg width="134" height="23" viewBox="0 0 134 23" fill="none" xmlns="http://www.w3.org/2000/svg">
<path d="M70.7534 9C70.7534 11.3296 69.6198 13.4742 68.4418 15.0666C67.857 15.8573 67.2713 16.498 66.8322 16.9406C66.6794 17.0947 66.5446 17.2245 66.4342 17.3278C66.3239 17.2245 66.1891 17.0947 66.0362 16.9406C65.5971 16.498 65.0115 15.8573 64.4266 15.0666C63.2486 13.4742 62.115 11.3296 62.115 9C62.115 6.67044 63.2486 4.52577 64.4266 2.93339C65.0115 2.14273 65.5971 1.502 66.0362 1.0594C66.1891 0.905279 66.3239 0.775524 66.4342 0.672181C66.5446 0.775524 66.6794 0.905279 66.8322 1.0594C67.2713 1.502 67.857 2.14273 68.4418 2.93339C69.6198 4.52577 70.7534 6.67044 70.7534 9Z" stroke="white"/>
<path d="M64.5571 8.77945C66.018 10.4467 66.5896 12.8775 66.7815 14.9616C66.8766 15.9945 66.8764 16.9202 66.8523 17.5874C66.843 17.8431 66.8303 18.0602 66.8182 18.23C66.6694 18.2438 66.4792 18.2584 66.2551 18.2689C65.6705 18.2964 64.8593 18.2967 63.9543 18.1882C62.1282 17.9692 59.9983 17.3167 58.5374 15.6495C57.0765 13.9822 56.5048 11.5515 56.3129 9.46735C56.2179 8.43447 56.2181 7.50877 56.2422 6.84152C56.2514 6.58577 56.2642 6.36869 56.2763 6.1989C56.425 6.18509 56.6152 6.17057 56.8393 6.16002C57.424 6.13249 58.2351 6.13224 59.1401 6.24077C60.9663 6.45975 63.0962 7.11217 64.5571 8.77945Z" stroke="white"/>
<path d="M69.6492 8.77945C68.1883 10.4467 67.6167 12.8775 67.4248 14.9616C67.3297 15.9945 67.3299 16.9202 67.354 17.5874C67.3633 17.8431 67.376 18.0602 67.3881 18.23C67.5369 18.2438 67.7271 18.2584 67.9512 18.2689C68.5358 18.2964 69.347 18.2967 70.252 18.1882C72.0781 17.9692 74.208 17.3167 75.6689 15.6495C77.1298 13.9822 77.7015 11.5515 77.8934 9.46735C77.9884 8.43447 77.9882 7.50877 77.9641 6.84152C77.9549 6.58577 77.9421 6.36869 77.93 6.1989C77.7813 6.18509 77.5911 6.17057 77.367 6.16002C76.7823 6.13249 75.9712 6.13224 75.0662 6.24077C73.24 6.45975 71.1101 7.11217 69.6492 8.77945Z" stroke="white"/>
<path d="M45 12H0" stroke="white"/>
<path d="M134 12L88 12" stroke="white"/>
</svg>